<svg width="150px" height="38px" viewBox="0 0 150 38" version="1.1" xmlns="http://www.w3.org/2000/svg" xmlns:xlink="http://www.w3.org/1999/xlink">
    <g id="WIREFRIME-DESKTOP" stroke="none" stroke-width="1" fill="none" fill-rule="evenodd">
        <g id="BLU-PODCAST-DESKTOP--HOME" transform="translate(-382.000000, -859.000000)">
            <g id="PROMO-E" transform="translate(0.000000, 413.000000)">
                <g id="Group-8" transform="translate(96.000000, 155.000000)">
                    <g id="ES_Google_Podcasts_Badge" transform="translate(286.000000, 291.000000)">
                        <g id="Rectangle-Solid" fill="#FFFFFF" fill-rule="nonzero" stroke="#9AA0A6" stroke-width="0.56">
                            <rect id="Rectangle" x="0.28" y="0.28" width="149.44" height="37.44" rx="8.96"></rect>
                        </g>
                        <g id="Podcast_icon_final" transform="translate(6.000000, 6.000000)">
                            <g id="logo_podcasts_192px">
                                <rect id="Rectangle-path" x="0" y="0" width="27" height="27"></rect>
                                <path d="M2.671875,11.109375 C1.816875,11.109375 1.125,11.80125 1.125,12.65625 L1.125,14.34375 C1.125,15.19875 1.816875,15.890625 2.671875,15.890625 C3.526875,15.890625 4.21875,15.19875 4.21875,14.34375 L4.21875,12.65625 C4.21875,11.80125 3.526875,11.109375 2.671875,11.109375 Z" id="Shape" fill="#0066D9" fill-rule="nonzero"></path>
                                <path d="M24.328125,11.109375 C23.473125,11.109375 22.78125,11.80125 22.78125,12.65625 L22.78125,14.34375 C22.78125,15.19875 23.473125,15.890625 24.328125,15.890625 C25.183125,15.890625 25.875,15.19875 25.875,14.34375 L25.875,12.65625 C25.875,11.80125 25.183125,11.109375 24.328125,11.109375 Z" id="Shape" fill="#4285F4" fill-rule="nonzero"></path>
                                <path d="M8.015625,16.171875 C7.160625,16.171875 6.46875,16.86375 6.46875,17.71875 L6.46875,19.40625 C6.46875,20.26125 7.160625,20.953125 8.015625,20.953125 C8.870625,20.953125 9.5625,20.26125 9.5625,19.40625 L9.5625,17.71875 C9.5625,16.86375 8.870625,16.171875 8.015625,16.171875 Z" id="Shape" fill="#EA4335" fill-rule="nonzero"></path>
                                <path d="M8.015625,6.046875 C7.160625,6.046875 6.46875,6.73875 6.46875,7.59375 L6.46875,13.1132812 L6.47015625,13.1132812 C6.48984375,13.9514062 7.17328125,14.625 8.015625,14.625 C8.85796875,14.625 9.54140625,13.9514062 9.56109375,13.1132812 L9.5625,13.1132812 L9.5625,7.59375 C9.5625,6.73875 8.870625,6.046875 8.015625,6.046875 Z" id="Shape" fill="#EA4335" fill-rule="nonzero"></path>
                                <path d="M18.984375,6.046875 C18.129375,6.046875 17.4375,6.73875 17.4375,7.59375 L17.4375,9.28125 C17.4375,10.13625 18.129375,10.828125 18.984375,10.828125 C19.839375,10.828125 20.53125,10.13625 20.53125,9.28125 L20.53125,7.59375 C20.53125,6.73875 19.839375,6.046875 18.984375,6.046875 Z" id="Shape" fill="#34A853" fill-rule="nonzero"></path>
                                <path d="M13.5,1.125 C12.645,1.125 11.953125,1.816875 11.953125,2.671875 L11.953125,4.359375 C11.953125,5.214375 12.645,5.90625 13.5,5.90625 C14.355,5.90625 15.046875,5.214375 15.046875,4.359375 L15.046875,2.671875 C15.046875,1.816875 14.355,1.125 13.5,1.125 Z" id="Shape" fill="#FAB908" fill-rule="nonzero"></path>
                                <path d="M13.5,21.09375 C12.645,21.09375 11.953125,21.785625 11.953125,22.640625 L11.953125,24.328125 C11.953125,25.183125 12.645,25.875 13.5,25.875 C14.355,25.875 15.046875,25.183125 15.046875,24.328125 L15.046875,22.640625 C15.046875,21.785625 14.355,21.09375 13.5,21.09375 Z" id="Shape" fill="#FAB908" fill-rule="nonzero"></path>
                                <path d="M18.984375,12.375 C18.129375,12.375 17.4375,13.066875 17.4375,13.921875 L17.4375,19.40625 C17.4375,20.26125 18.129375,20.953125 18.984375,20.953125 C19.839375,20.953125 20.53125,20.26125 20.53125,19.40625 L20.53125,13.921875 C20.53125,13.066875 19.839375,12.375 18.984375,12.375 Z" id="Shape" fill="#34A853" fill-rule="nonzero"></path>
                                <path d="M15.046875,9 C15.046875,8.145 14.355,7.453125 13.5,7.453125 C12.645,7.453125 11.953125,8.145 11.953125,9 L11.953125,9 L11.953125,12.7504687 L11.953125,14.2509375 L11.953125,18 L11.953125,18 C11.953125,18.855 12.645,19.546875 13.5,19.546875 C14.355,19.546875 15.046875,18.855 15.046875,18 L15.046875,18 L15.046875,14.2495313 L15.046875,12.7504687 L15.046875,9 L15.046875,9 Z" id="Shape" fill="#FAB908" fill-rule="nonzero"></path>
                            </g>
                        </g>
                        <g id="Group" transform="translate(39.000000, 17.000000)">
                            <polygon id="Rectangle-path" points="0 1.24 101.92 1.24 101.92 16.92 0 16.92"></polygon>
                            <path d="M50.344,12.06 L50.344,7.972 L52.542,7.972 C53.102,7.972 53.62,7.846 54.096,7.594 C54.572,7.342 54.9523333,6.98966667 55.237,6.537 C55.5216667,6.08433333 55.664,5.57333333 55.664,5.004 C55.664,4.43466667 55.5216667,3.92366667 55.237,3.471 C54.9523333,3.01833333 54.572,2.666 54.096,2.414 C53.62,2.162 53.102,2.036 52.542,2.036 L52.542,2.036 L49.168,2.036 L49.168,12.06 L50.344,12.06 Z M52.57,6.838 L50.344,6.838 L50.344,3.17 L52.57,3.17 C52.9433333,3.17 53.2723333,3.25866667 53.557,3.436 C53.8416667,3.61333333 54.0633333,3.842 54.222,4.122 C54.3806667,4.402 54.46,4.696 54.46,5.004 C54.46,5.312 54.3806667,5.606 54.222,5.886 C54.0633333,6.166 53.8416667,6.39466667 53.557,6.572 C53.2723333,6.74933333 52.9433333,6.838 52.57,6.838 L52.57,6.838 Z M59.598,12.284 C60.298,12.284 60.928,12.116 61.488,11.78 C62.048,11.444 62.4843333,10.9866667 62.797,10.408 C63.1096667,9.8293333 63.266,9.19 63.266,8.49 C63.266,7.79 63.1096667,7.15066667 62.797,6.572 C62.4843333,5.99333333 62.048,5.536 61.488,5.2 C60.928,4.864 60.298,4.696 59.598,4.696 C58.898,4.696 58.268,4.864 57.708,5.2 C57.148,5.536 56.7116667,5.99333333 56.399,6.572 C56.0863333,7.15066667 55.93,7.79 55.93,8.49 C55.93,9.19 56.0863333,9.8293333 56.399,10.408 C56.7116667,10.9866667 57.148,11.444 57.708,11.78 C58.268,12.116 58.898,12.284 59.598,12.284 Z M59.598,11.206 C59.1593333,11.206 58.7486667,11.0963333 58.366,10.877 C57.9833333,10.6576667 57.6776667,10.3426667 57.449,9.932 C57.2203333,9.5213333 57.106,9.0406667 57.106,8.49 C57.106,7.93933333 57.2203333,7.45866667 57.449,7.048 C57.6776667,6.63733333 57.9833333,6.32233333 58.366,6.103 C58.7486667,5.88366667 59.1593333,5.774 59.598,5.774 C60.0366667,5.774 60.445,5.88366667 60.823,6.103 C61.201,6.32233333 61.5043333,6.63733333 61.733,7.048 C61.9616667,7.45866667 62.076,7.93933333 62.076,8.49 C62.076,9.0406667 61.9616667,9.5213333 61.733,9.932 C61.5043333,10.3426667 61.201,10.6576667 60.823,10.877 C60.445,11.0963333 60.0366667,11.206 59.598,11.206 Z M67.48,12.284 C68.0306667,12.284 68.5206667,12.1603333 68.95,11.913 C69.3793333,11.6656667 69.706,11.3646667 69.93,11.01 L69.93,11.01 L69.986,11.01 L69.986,12.06 L71.12,12.06 L71.12,2.036 L69.93,2.036 L69.93,4.99 L69.986,5.984 L69.93,5.984 C69.706,5.62 69.3793333,5.31433333 68.95,5.067 C68.5206667,4.81966667 68.0306667,4.696 67.48,4.696 C66.8453333,4.696 66.269,4.85933333 65.751,5.186 C65.233,5.51266667 64.8246667,5.96533333 64.526,6.544 C64.2273333,7.12266667 64.078,7.77133333 64.078,8.49 C64.078,9.218 64.2273333,9.869 64.526,10.443 C64.8246667,11.017 65.233,11.4673333 65.751,11.794 C66.269,12.1206667 66.8453333,12.284 67.48,12.284 Z M67.62,11.206 C67.2093333,11.206 66.822,11.094 66.458,10.87 C66.094,10.646 65.8023333,10.3263333 65.583,9.911 C65.3636667,9.4956667 65.254,9.022 65.254,8.49 C65.254,7.958 65.3636667,7.48433333 65.583,7.069 C65.8023333,6.65366667 66.094,6.334 66.458,6.11 C66.822,5.886 67.2093333,5.774 67.62,5.774 C68.04,5.774 68.4296667,5.886 68.789,6.11 C69.1483333,6.334 69.4376667,6.65133333 69.657,7.062 C69.8763333,7.47266667 69.986,7.94866667 69.986,8.49 C69.986,9.0313333 69.8763333,9.5073333 69.657,9.918 C69.4376667,10.3286667 69.1483333,10.646 68.789,10.87 C68.4296667,11.094 68.04,11.206 67.62,11.206 Z M75.852,12.284 C76.6173333,12.284 77.2683333,12.102 77.805,11.738 C78.3416667,11.374 78.7313333,10.898 78.974,10.31 L78.974,10.31 L77.91,9.862 C77.7326667,10.2913333 77.462,10.6226667 77.098,10.856 C76.734,11.0893333 76.3,11.206 75.796,11.206 C75.376,11.206 74.984,11.0916667 74.62,10.863 C74.256,10.6343333 73.9643333,10.3146667 73.745,9.904 C73.5256667,9.4933333 73.416,9.022 73.416,8.49 C73.416,7.958 73.5256667,7.48666667 73.745,7.076 C73.9643333,6.66533333 74.256,6.34566667 74.62,6.117 C74.984,5.88833333 75.376,5.774 75.796,5.774 C76.2906667,5.774 76.713,5.88833333 77.063,6.117 C77.413,6.34566667 77.6766667,6.67933333 77.854,7.118 L77.854,7.118 L78.932,6.67 C78.708,6.07266667 78.3323333,5.59433333 77.805,5.235 C77.2776667,4.87566667 76.6266667,4.696 75.852,4.696 C75.1613333,4.696 74.5406667,4.85933333 73.99,5.186 C73.4393333,5.51266667 73.01,5.96533333 72.702,6.544 C72.394,7.12266667 72.24,7.77133333 72.24,8.49 C72.24,9.2086667 72.394,9.855 72.702,10.429 C73.01,11.003 73.4393333,11.4556667 73.99,11.787 C74.5406667,12.1183333 75.1613333,12.284 75.852,12.284 Z M82.278,12.284 C82.7913333,12.284 83.2533333,12.1626667 83.664,11.92 C84.0746667,11.6773333 84.3826667,11.3833333 84.588,11.038 L84.588,11.038 L84.644,11.038 L84.644,12.06 L85.778,12.06 L85.778,7.538 C85.778,6.66066667 85.5003333,5.96766667 84.945,5.459 C84.3896667,4.95033333 83.6266667,4.696 82.656,4.696 C82.0586667,4.696 81.515,4.81733333 81.025,5.06 C80.535,5.30266667 80.15,5.63866667 79.87,6.068 L79.87,6.068 L80.766,6.74 C80.962,6.432 81.228,6.19166667 81.564,6.019 C81.9,5.84633333 82.2686667,5.76 82.67,5.76 C83.2393333,5.76 83.7106667,5.921 84.084,6.243 C84.4573333,6.565 84.644,6.992 84.644,7.524 L84.644,7.524 L84.644,7.958 C84.448,7.83666667 84.1656667,7.72933333 83.797,7.636 C83.4283333,7.54266667 83.0293333,7.496 82.6,7.496 C81.732,7.496 81.0133333,7.70833333 80.444,8.133 C79.8746667,8.5576667 79.59,9.148 79.59,9.904 C79.59,10.3613333 79.702,10.7696667 79.926,11.129 C80.15,11.4883333 80.4673333,11.7706667 80.878,11.976 C81.2886667,12.1813333 81.7553333,12.284 82.278,12.284 Z M82.39,11.234 C81.9326667,11.234 81.5546667,11.1126667 81.256,10.87 C80.9573333,10.6273333 80.808,10.31 80.808,9.918 C80.808,9.4886667 80.9736667,9.1386667 81.305,8.868 C81.6363333,8.5973333 82.1286667,8.462 82.782,8.462 C83.146,8.462 83.4913333,8.5086667 83.818,8.602 C84.1446667,8.6953333 84.42,8.8166667 84.644,8.966 C84.644,9.3766667 84.5413333,9.7546667 84.336,10.1 C84.1306667,10.4453333 83.8553333,10.7206667 83.51,10.926 C83.1646667,11.1313333 82.7913333,11.234 82.39,11.234 Z M89.656,12.284 C90.1786667,12.284 90.6546667,12.1953333 91.084,12.018 C91.5133334,11.8406667 91.854,11.5863333 92.106,11.255 C92.358,10.9236667 92.484,10.5386667 92.484,10.1 C92.484,9.596 92.3066667,9.169 91.952,8.819 C91.5973334,8.469 91.07,8.2053333 90.37,8.028 L90.37,8.028 L89.334,7.762 C88.9233334,7.65933333 88.6153334,7.52633333 88.41,7.363 C88.2046667,7.19966667 88.102,6.98733333 88.102,6.726 C88.102,6.446 88.249,6.215 88.543,6.033 C88.837,5.851 89.18,5.76 89.572,5.76 C90.384,5.76 90.9486667,6.07733333 91.266,6.712 L91.266,6.712 L92.302,6.236 C92.0966667,5.75066667 91.749,5.37266667 91.259,5.102 C90.769,4.83133333 90.2113334,4.696 89.586,4.696 C89.11,4.696 88.6666667,4.78 88.256,4.948 C87.8453334,5.116 87.5163334,5.35633333 87.269,5.669 C87.0216667,5.98166667 86.898,6.34333333 86.898,6.754 C86.898,7.286 87.08,7.72 87.444,8.056 C87.808,8.392 88.2746667,8.63 88.844,8.77 L88.844,8.77 L89.712,8.994 C90.2533334,9.1246667 90.65,9.281 90.902,9.463 C91.154,9.645 91.28,9.8853333 91.28,10.184 C91.28,10.52 91.1213334,10.779 90.804,10.961 C90.4866667,11.143 90.104,11.234 89.656,11.234 C89.236,11.234 88.851,11.1173333 88.501,10.884 C88.151,10.6506667 87.8873334,10.3193333 87.71,9.89 L87.71,9.89 L86.646,10.366 C86.8606667,10.926 87.2246667,11.3856667 87.738,11.745 C88.2513334,12.1043333 88.8906667,12.284 89.656,12.284 Z M96.264,12.172 C96.488,12.172 96.6723334,12.158 96.817,12.13 C96.9616667,12.102 97.104,12.0553333 97.244,11.99 L97.244,11.99 L97.244,10.828 C96.992,10.9866667 96.7306667,11.066 96.46,11.066 C96.124,11.066 95.8673334,10.9633333 95.69,10.758 C95.5406667,10.5713333 95.466,10.282 95.466,9.89 L95.466,9.89 L95.466,5.998 L97.202,5.998 L97.202,4.92 L95.466,4.92 L95.466,2.904 L94.276,2.904 L94.276,4.92 L93.03,4.92 L93.03,5.998 L94.276,5.998 L94.276,10.184 C94.276,10.52 94.3226667,10.8046667 94.416,11.038 C94.5093334,11.2713333 94.6493334,11.4766667 94.836,11.654 C95.004,11.8126667 95.2116667,11.9386667 95.459,12.032 C95.7063334,12.1253333 95.9746667,12.172 96.264,12.172 Z M101.08,12.284 C101.602667,12.284 102.078667,12.1953333 102.508,12.018 C102.937333,11.8406667 103.278,11.5863333 103.53,11.255 C103.782,10.9236667 103.908,10.5386667 103.908,10.1 C103.908,9.596 103.730667,9.169 103.376,8.819 C103.021333,8.469 102.494,8.2053333 101.794,8.028 L101.794,8.028 L100.758,7.762 C100.347333,7.65933333 100.039333,7.52633333 99.834,7.363 C99.6286667,7.19966667 99.526,6.98733333 99.526,6.726 C99.526,6.446 99.673,6.215 99.967,6.033 C100.261,5.851 100.604,5.76 100.996,5.76 C101.808,5.76 102.372667,6.07733333 102.69,6.712 L102.69,6.712 L103.726,6.236 C103.520667,5.75066667 103.173,5.37266667 102.683,5.102 C102.193,4.83133333 101.635333,4.696 101.01,4.696 C100.534,4.696 100.090667,4.78 99.68,4.948 C99.2693334,5.116 98.9403334,5.35633333 98.693,5.669 C98.4456667,5.98166667 98.322,6.34333333 98.322,6.754 C98.322,7.286 98.504,7.72 98.868,8.056 C99.232,8.392 99.6986667,8.63 100.268,8.77 L100.268,8.77 L101.136,8.994 C101.677333,9.1246667 102.074,9.281 102.326,9.463 C102.578,9.645 102.704,9.8853333 102.704,10.184 C102.704,10.52 102.545333,10.779 102.228,10.961 C101.910667,11.143 101.528,11.234 101.08,11.234 C100.66,11.234 100.275,11.1173333 99.925,10.884 C99.575,10.6506667 99.3113334,10.3193333 99.134,9.89 L99.134,9.89 L98.07,10.366 C98.2846667,10.926 98.6486667,11.3856667 99.162,11.745 C99.6753334,12.1043333 100.314667,12.284 101.08,12.284 Z" id="Podcasts" fill="#3C4043" fill-rule="nonzero"></path>
                            <path d="M31.6213333,4.81333333 C32.5033333,4.81333333 33.2002222,5.20533333 33.5595556,5.64088889 L33.614,5.64088889 L33.614,5.042 L35.1602222,5.042 L35.1602222,11.6515556 C35.1602222,14.3737778 33.5595556,15.4844444 31.6648889,15.4844444 C29.8791111,15.4844444 28.8011111,14.2866667 28.3982222,13.3066667 L29.8028889,12.7186667 C30.0533333,13.3175556 30.6631111,14.0253333 31.654,14.0253333 C32.8626667,14.0253333 33.614,13.274 33.614,11.8693333 L33.614,11.3357778 L33.5595556,11.3357778 C33.2002222,11.7822222 32.5033333,12.1742222 31.6213333,12.1742222 C29.7811111,12.1742222 28.0933333,10.5626667 28.0933333,8.5046667 C28.0933333,6.42488889 29.7811111,4.81333333 31.6213333,4.81333333 Z M15.6691111,4.92222222 C17.7053333,4.92222222 19.3604444,6.46844444 19.3604444,8.6026667 C19.3604444,10.726 17.7053333,12.2831111 15.6691111,12.2831111 C13.6328889,12.2831111 11.9777778,10.726 11.9777778,8.6026667 C11.9777778,6.46844444 13.6328889,4.92222222 15.6691111,4.92222222 Z M23.7268889,4.92222222 C25.7631111,4.92222222 27.4182222,6.46844444 27.4182222,8.6026667 C27.4182222,10.726 25.7631111,12.2831111 23.7268889,12.2831111 C21.6906667,12.2831111 20.0355556,10.726 20.0355556,8.6026667 C20.0355556,6.46844444 21.6906667,4.92222222 23.7268889,4.92222222 Z M42.1291111,4.92222222 C44.0346667,4.92222222 44.9711111,6.43577778 45.276,7.26333333 L45.4393333,7.67711111 L40.5175556,9.7133333 C40.8986667,10.4428889 41.4757778,10.824 42.3033333,10.824 C43.1308889,10.824 43.6971111,10.4211111 44.1217778,9.8113333 L45.374,10.6497778 C44.9602222,11.2486667 43.9911111,12.2831111 42.3033333,12.2831111 C40.2126667,12.2831111 38.6555556,10.6606667 38.6555556,8.6026667 C38.6555556,6.414 40.2344444,4.92222222 42.1291111,4.92222222 Z M6.13044444,0.78444444 C7.87266667,0.78444444 9.114,1.47044444 10.0504444,2.36333333 L8.93977778,3.46311111 C8.27555556,2.83155556 7.37177778,2.34155556 6.13044444,2.34155556 C3.83288889,2.34155556 2.03622222,4.19266667 2.03622222,6.49022222 C2.03622222,8.7877778 3.83288889,10.6388889 6.13044444,10.6388889 C7.62222222,10.6388889 8.47155556,10.04 9.016,9.4955556 C9.46244444,9.0491111 9.75644444,8.4066667 9.86533333,7.53555556 L6.13044444,7.53555556 L6.13044444,5.97844444 L11.3897778,5.97844444 C11.4442222,6.26155556 11.4768889,6.58822222 11.4768889,6.95844444 C11.4768889,8.1344444 11.1611111,9.5826667 10.1266667,10.6062222 C9.114,11.6515556 7.82911111,12.2068889 6.13044444,12.2068889 C2.97266667,12.2068889 0.326666667,9.648 0.326666667,6.50111111 C0.326666667,3.34333333 2.97266667,0.78444444 6.13044444,0.78444444 Z M37.8715556,1.22 L37.8715556,12.0326667 L36.26,12.0326667 L36.26,1.22 L37.8715556,1.22 Z M15.6691111,6.35955556 C14.5475556,6.35955556 13.5893333,7.26333333 13.5893333,8.5917778 C13.5893333,9.9093333 14.5584444,10.824 15.6691111,10.824 C16.7797778,10.824 17.7488889,9.9093333 17.7488889,8.5917778 C17.7488889,7.26333333 16.7797778,6.35955556 15.6691111,6.35955556 Z M23.7268889,6.35955556 C22.6053333,6.35955556 21.6471111,7.26333333 21.6471111,8.5917778 C21.6471111,9.9093333 22.6162222,10.824 23.7268889,10.824 C24.8375556,10.824 25.8066667,9.9093333 25.8066667,8.5917778 C25.8066667,7.26333333 24.8484444,6.35955556 23.7268889,6.35955556 Z M31.7628889,6.26155556 C30.6522222,6.26155556 29.7157778,7.20888889 29.7157778,8.5046667 C29.7157778,9.7895556 30.6522222,10.726 31.7628889,10.726 C32.8626667,10.726 33.7337778,9.8004444 33.7228889,8.5046667 C33.7228889,7.20888889 32.8626667,6.26155556 31.7628889,6.26155556 Z M42.1835556,6.33777778 C41.356,6.33777778 40.2126667,7.06733333 40.2562222,8.4828889 L43.5446667,7.12177778 C43.3704444,6.65355556 42.826,6.33777778 42.1835556,6.33777778 Z" id="Combined-Shape" fill="#3C4043" fill-rule="nonzero"></path>
                        </g>
                        <path d="M44.3845313,14.2 L44.3845313,13.4272656 L40.7767969,13.4272656 L40.7767969,10.8875781 L43.8825,10.8875781 L43.8825,10.1148438 L40.7767969,10.1148438 L40.7767969,7.81140625 L44.3353125,7.81140625 L44.3353125,7.03375 L39.8317969,7.03375 L39.8317969,14.2 L44.3845313,14.2 Z M47.6290312,14.2984375 C48.2360625,14.2984375 48.7298906,14.1548828 49.1105156,13.8677734 C49.4911406,13.5806641 49.6814531,13.1992188 49.6814531,12.7234375 C49.6814531,12.4379687 49.6133672,12.1959766 49.4771953,11.9974609 C49.3410234,11.7989453 49.1318437,11.6291406 48.8496562,11.4880469 C48.5674687,11.3469531 48.1991484,11.2255469 47.7446953,11.1238281 C47.2902422,11.0221094 46.9760625,10.9154688 46.8021562,10.8039063 C46.62825,10.6923437 46.5412969,10.5266406 46.5412969,10.3067969 C46.5412969,10.0738281 46.6348125,9.88515625 46.8218437,9.74078125 C47.008875,9.59640625 47.2680937,9.52421875 47.5995,9.52421875 C47.9210625,9.52421875 48.1876641,9.61445312 48.3993047,9.79492188 C48.6109453,9.97539063 48.7167656,10.1903125 48.7167656,10.4396875 L48.7167656,10.4396875 L49.6322344,10.4396875 C49.6322344,9.9540625 49.4443828,9.55539062 49.0686797,9.24367188 C48.6929766,8.93195313 48.20325,8.77609375 47.5995,8.77609375 C47.0252812,8.77609375 46.5536016,8.92703125 46.1844609,9.22890625 C45.8153203,9.53078125 45.63075,9.89992188 45.63075,10.3363281 C45.63075,10.5988281 45.6955547,10.8252344 45.8251641,11.0155469 C45.9547734,11.2058594 46.1549297,11.3699219 46.4256328,11.5077344 C46.6963359,11.6455469 47.0621953,11.7636719 47.5232109,11.8621094 C47.9842266,11.9605469 48.3074297,12.0778516 48.4928203,12.2140234 C48.6782109,12.3501953 48.7709062,12.5413281 48.7709062,12.7874219 C48.7709062,13.0203906 48.6667266,13.2066016 48.4583672,13.3460547 C48.2500078,13.4855078 47.9735625,13.5552344 47.6290312,13.5552344 C47.2549687,13.5552344 46.9539141,13.4658203 46.7258672,13.2869922 C46.4978203,13.1081641 46.3755937,12.8661719 46.3591875,12.5610156 L46.3591875,12.5610156 L45.4486406,12.5610156 C45.4486406,12.8760156 45.5413359,13.1688672 45.7267266,13.4395703 C45.9121172,13.7102734 46.168875,13.9210938 46.497,14.0720313 C46.825125,14.2229688 47.2024687,14.2984375 47.6290312,14.2984375 Z M53.2557187,14.2984375 C53.6166562,14.2984375 53.9587265,14.2164063 54.2819297,14.0523438 C54.6051328,13.8882813 54.8635312,13.6684375 55.057125,13.3928125 C55.2507187,13.1171875 55.3557187,12.8267969 55.372125,12.5216406 L55.372125,12.5216406 L54.5107969,12.5216406 C54.4845469,12.8169531 54.3500156,13.0630469 54.1072031,13.2599219 C53.8643906,13.4567969 53.5805625,13.5552344 53.2557187,13.5552344 C52.7865,13.5552344 52.4255625,13.3895313 52.1729062,13.058125 C51.92025,12.7267187 51.7939219,12.2542187 51.7939219,11.640625 L51.7939219,11.640625 L51.7939219,11.4683594 C51.7939219,10.8383594 51.9210703,10.3568359 52.1753672,10.0237891 C52.429664,9.69074219 52.7881406,9.52421875 53.2507969,9.52421875 C53.5953281,9.52421875 53.8848984,9.63496094 54.1195078,9.85644531 C54.3541172,10.0779297 54.4845469,10.3609375 54.5107969,10.7054688 L54.5107969,10.7054688 L55.372125,10.7054688 C55.345875,10.1345313 55.1350547,9.67023437 54.739664,9.31257812 C54.3442734,8.95492188 53.8479844,8.77609375 53.2507969,8.77609375 C52.7651719,8.77609375 52.3443515,8.88765625 51.9883359,9.11078125 C51.6323203,9.33390625 51.3591562,9.64726562 51.1688437,10.0508594 C50.9785312,10.4544531 50.883375,10.9154687 50.883375,11.4339062 L50.883375,11.4339062 L50.883375,11.5864844 C50.883375,12.4264844 51.0974765,13.0884766 51.5256797,13.5724609 C51.9538828,14.0564453 52.5305625,14.2984375 53.2557187,14.2984375 Z M58.3754531,14.2984375 C59.0612344,14.2984375 59.5813125,14.0900781 59.9356875,13.6733594 L59.9356875,13.6733594 L59.955375,14.2 L60.821625,14.2 L60.821625,8.87453125 L59.9110781,8.87453125 L59.9110781,12.7480469 C59.6813906,13.2664844 59.2187344,13.5257031 58.5231094,13.5257031 C57.8668594,13.5257031 57.5387344,13.1221094 57.5387344,12.3149219 L57.5387344,12.3149219 L57.5387344,8.87453125 L56.6281875,8.87453125 L56.6281875,12.3395313 C56.6314687,12.9859375 56.7815859,13.4740234 57.078539,13.8037891 C57.3754922,14.1335547 57.8077969,14.2984375 58.3754531,14.2984375 Z M64.5927656,14.2984375 C64.9537031,14.2984375 65.2957734,14.2164063 65.6189765,14.0523438 C65.9421797,13.8882813 66.2005781,13.6684375 66.3941718,13.3928125 C66.5877656,13.1171875 66.6927656,12.8267969 66.7091718,12.5216406 L66.7091718,12.5216406 L65.8478437,12.5216406 C65.8215937,12.8169531 65.6870625,13.0630469 65.44425,13.2599219 C65.2014375,13.4567969 64.9176093,13.5552344 64.5927656,13.5552344 C64.1235468,13.5552344 63.7626093,13.3895313 63.5099531,13.058125 C63.2572968,12.7267187 63.1309687,12.2542187 63.1309687,11.640625 L63.1309687,11.640625 L63.1309687,11.4683594 C63.1309687,10.8383594 63.2581172,10.3568359 63.512414,10.0237891 C63.7667109,9.69074219 64.1251875,9.52421875 64.5878437,9.52421875 C64.932375,9.52421875 65.2219453,9.63496094 65.4565547,9.85644531 C65.691164,10.0779297 65.8215937,10.3609375 65.8478437,10.7054688 L65.8478437,10.7054688 L66.7091718,10.7054688 C66.6829218,10.1345313 66.4721015,9.67023437 66.0767109,9.31257812 C65.6813203,8.95492188 65.1850312,8.77609375 64.5878437,8.77609375 C64.1022187,8.77609375 63.6813984,8.88765625 63.3253828,9.11078125 C62.9693672,9.33390625 62.6962031,9.64726562 62.5058906,10.0508594 C62.3155781,10.4544531 62.2204218,10.9154687 62.2204218,11.4339062 L62.2204218,11.4339062 L62.2204218,11.5864844 C62.2204218,12.4264844 62.4345234,13.0884766 62.8627265,13.5724609 C63.2909297,14.0564453 63.8676093,14.2984375 64.5927656,14.2984375 Z M68.8954687,14.2 L68.8954687,10.4052344 C69.0201562,10.1492969 69.1940625,9.94257813 69.4171875,9.78507813 C69.6403125,9.62757812 69.8995312,9.54882812 70.1948437,9.54882812 C70.5590625,9.54882812 70.8273047,9.64070312 70.9995703,9.82445313 C71.1718359,10.0082031 71.2596093,10.2920312 71.2628906,10.6759375 L71.2628906,10.6759375 L71.2628906,14.2 L72.1734375,14.2 L72.1734375,10.6808594 C72.1635937,9.41101563 71.5959375,8.77609375 70.4704687,8.77609375 C69.8240625,8.77609375 69.2990625,9.02382813 68.8954687,9.51929688 L68.8954687,9.51929688 L68.8954687,6.64 L67.9849218,6.64 L67.9849218,14.2 L68.8954687,14.2 Z M75.4327031,14.2984375 C76.0200468,14.2984375 76.5253593,14.0785938 76.9486406,13.6389063 C76.9814531,13.9079688 77.0241093,14.095 77.0766093,14.2 L77.0766093,14.2 L78.0314531,14.2 L78.0314531,14.12125 C77.9067656,13.8325 77.8444218,13.4436719 77.8444218,12.9547656 L77.8444218,12.9547656 L77.8444218,10.5036719 C77.8312968,9.96554688 77.6508281,9.54308594 77.3030156,9.23628906 C76.9552031,8.92949219 76.4745,8.77609375 75.8609062,8.77609375 C75.4737187,8.77609375 75.1185234,8.84828125 74.7953203,8.99265625 C74.4721171,9.13703125 74.2161796,9.33308594 74.0275078,9.58082031 C73.8388359,9.82855469 73.7445,10.0853125 73.7445,10.3510938 L73.7445,10.3510938 L74.6599687,10.3510938 C74.6599687,10.118125 74.7698906,9.91960938 74.9897343,9.75554688 C75.2095781,9.59148438 75.4819218,9.50945313 75.8067656,9.50945313 C76.1775468,9.50945313 76.4580937,9.60378906 76.6484062,9.79246094 C76.8387187,9.98113281 76.933875,10.2346094 76.933875,10.5528906 L76.933875,10.5528906 L76.933875,10.97125 L76.0479375,10.97125 C75.2834062,10.97125 74.6903203,11.1246484 74.2686796,11.4314453 C73.847039,11.7382422 73.6362187,12.1689063 73.6362187,12.7234375 C73.6362187,13.1795313 73.8043828,13.5560547 74.1407109,13.8530078 C74.477039,14.1499609 74.9077031,14.2984375 75.4327031,14.2984375 Z M75.5655937,13.5060156 C75.267,13.5060156 75.0225468,13.425625 74.8322343,13.2648438 C74.6419218,13.1040625 74.5467656,12.8809375 74.5467656,12.5954688 C74.5467656,11.9425 75.1045781,11.6160156 76.2202031,11.6160156 L76.2202031,11.6160156 L76.933875,11.6160156 L76.933875,12.7086719 C76.8190312,12.9449219 76.6336406,13.136875 76.3777031,13.2845313 C76.1217656,13.4321875 75.8510625,13.5060156 75.5655937,13.5060156 Z M80.4343125,14.2 L80.4343125,10.42 C80.6475937,9.91140625 81.0528281,9.65710938 81.6500156,9.65710938 C81.8107968,9.65710938 81.9600937,9.66859375 82.0979062,9.6915625 L82.0979062,9.6915625 L82.0979062,8.845 C82.0060312,8.7990625 81.8715,8.77609375 81.6943125,8.77609375 C81.1463437,8.77609375 80.7230625,9.01398438 80.4244687,9.48976563 L80.4244687,9.48976563 L80.4097031,8.87453125 L79.5237656,8.87453125 L79.5237656,14.2 L80.4343125,14.2 Z M88.1439374,14.2984375 C89.0364374,14.2984375 89.7058124,13.9555469 90.1520624,13.2697656 L90.1520624,13.2697656 L89.5958906,12.8366406 C89.4285468,13.0532031 89.2333124,13.2271094 89.0101874,13.3583594 C88.7870624,13.4896094 88.5147187,13.5552344 88.1931562,13.5552344 C87.7403437,13.5552344 87.3671015,13.3936328 87.0734296,13.0704297 C86.7797578,12.7472266 86.6263593,12.323125 86.6132343,11.798125 L86.6132343,11.798125 L90.2209687,11.798125 L90.2209687,11.4191406 C90.2209687,10.5692969 90.0290156,9.91632812 89.6451093,9.46023438 C89.2612031,9.00414063 88.7230781,8.77609375 88.0307343,8.77609375 C87.6074531,8.77609375 87.2145234,8.89339844 86.8519453,9.12800781 C86.4893671,9.36261719 86.2071796,9.68746094 86.0053828,10.1025391 C85.8035859,10.5176172 85.7026874,10.9892969 85.7026874,11.5175781 L85.7026874,11.5175781 L85.7026874,11.6849219 C85.7026874,12.4789844 85.9290937,13.1130859 86.3819062,13.5872266 C86.8347187,14.0613672 87.4220624,14.2984375 88.1439374,14.2984375 Z M89.3104218,11.05 L86.6427656,11.05 C86.7018281,10.5676563 86.8560468,10.1927734 87.1054218,9.92535156 C87.3547968,9.65792969 87.6632343,9.52421875 88.0307343,9.52421875 C88.4113593,9.52421875 88.7132343,9.65136719 88.9363593,9.90566406 C89.1594843,10.1599609 89.2841718,10.5184375 89.3104218,10.9810937 L89.3104218,10.9810937 L89.3104218,11.05 Z M92.4367968,14.2 L92.4367968,10.4052344 C92.5614843,10.1492969 92.7353906,9.94257813 92.9585156,9.78507813 C93.1816406,9.62757812 93.4408593,9.54882812 93.7361718,9.54882812 C94.1003906,9.54882812 94.3686327,9.64070312 94.5408984,9.82445313 C94.713164,10.0082031 94.8009374,10.2920312 94.8042187,10.6759375 L94.8042187,10.6759375 L94.8042187,14.2 L95.7147656,14.2 L95.7147656,10.6808594 C95.7049218,9.41101563 95.1372656,8.77609375 94.0117968,8.77609375 C93.3555468,8.77609375 92.8239843,9.03203125 92.4171093,9.54390625 L92.4171093,9.54390625 L92.3875781,8.87453125 L91.5262499,8.87453125 L91.5262499,14.2 L92.4367968,14.2 Z" id="Escucharen" fill="#5F6368" fill-rule="nonzero"></path>
                    </g>
                </g>
            </g>
        </g>
    </g>
</svg>